<mxfile host="65bd71144e">
    <diagram id="cD52tqRjU22jmfu8s6Lm" name="Page-1">
        <mxGraphModel dx="624" dy="352" grid="1" gridSize="10" guides="1" tooltips="1" connect="1" arrows="1" fold="1" page="1" pageScale="1" pageWidth="850" pageHeight="1100" math="0" shadow="0">
            <root>
                <mxCell id="0"/>
                <mxCell id="1" parent="0"/>
                <mxCell id="47" value="" style="rounded=0;whiteSpace=wrap;html=1;strokeColor=none;sketch=0;fillStyle=cross-hatch;fillColor=#FFFFFF;strokeWidth=1;" parent="1" vertex="1">
                    <mxGeometry width="480" height="160" as="geometry"/>
                </mxCell>
                <mxCell id="44" value="" style="rounded=0;whiteSpace=wrap;html=1;strokeColor=none;sketch=1;fillStyle=cross-hatch;fillColor=#E6E6E6;strokeWidth=1;" parent="1" vertex="1">
                    <mxGeometry width="480" height="160" as="geometry"/>
                </mxCell>
                <mxCell id="48" value="" style="rounded=0;whiteSpace=wrap;html=1;strokeColor=none;" vertex="1" parent="1">
                    <mxGeometry x="40" y="30" width="400" height="110" as="geometry"/>
                </mxCell>
                <mxCell id="42" value="" style="rounded=0;whiteSpace=wrap;html=1;fontFamily=Lucida Console;fontSize=10;strokeColor=none;fillColor=#dae8fc;sketch=1;shadow=0;fillStyle=cross-hatch;" parent="1" vertex="1">
                    <mxGeometry x="330" y="30" width="110" height="110" as="geometry"/>
                </mxCell>
                <mxCell id="43" value="" style="rounded=0;whiteSpace=wrap;html=1;fontFamily=Lucida Console;fontSize=10;strokeColor=none;fillColor=#d5e8d4;sketch=1;fillStyle=cross-hatch;" parent="1" vertex="1">
                    <mxGeometry x="180" y="30" width="150" height="110" as="geometry"/>
                </mxCell>
                <mxCell id="36" value="" style="rounded=0;whiteSpace=wrap;html=1;fontFamily=Lucida Console;fontSize=10;strokeColor=none;fillColor=#f8cecc;gradientColor=none;sketch=1;fillStyle=cross-hatch;strokeWidth=1;" parent="1" vertex="1">
                    <mxGeometry x="40" y="30" width="140" height="110" as="geometry"/>
                </mxCell>
                <mxCell id="3" value="" style="rounded=0;whiteSpace=wrap;html=1;strokeColor=none;fillColor=#f8cecc;perimeterSpacing=0;" parent="1" vertex="1">
                    <mxGeometry x="40" y="60" width="120" height="80" as="geometry"/>
                </mxCell>
                <mxCell id="5" value="" style="endArrow=none;dashed=1;html=1;fontFamily=Lucida Console;strokeWidth=1;dashPattern=1 2;" parent="1" edge="1">
                    <mxGeometry width="50" height="50" relative="1" as="geometry">
                        <mxPoint x="239.92" y="140" as="sourcePoint"/>
                        <mxPoint x="239.92" y="160" as="targetPoint"/>
                    </mxGeometry>
                </mxCell>
                <mxCell id="6" value="" style="endArrow=none;html=1;fontFamily=Lucida Console;" parent="1" edge="1">
                    <mxGeometry width="50" height="50" relative="1" as="geometry">
                        <mxPoint y="160" as="sourcePoint"/>
                        <mxPoint x="480" y="160" as="targetPoint"/>
                    </mxGeometry>
                </mxCell>
                <mxCell id="7" value="" style="endArrow=none;html=1;fontFamily=Lucida Console;" parent="1" edge="1">
                    <mxGeometry width="50" height="50" relative="1" as="geometry">
                        <mxPoint as="sourcePoint"/>
                        <mxPoint x="480" as="targetPoint"/>
                    </mxGeometry>
                </mxCell>
                <mxCell id="8" value="" style="endArrow=none;html=1;fontFamily=Lucida Console;" parent="1" edge="1">
                    <mxGeometry width="50" height="50" relative="1" as="geometry">
                        <mxPoint y="160" as="sourcePoint"/>
                        <mxPoint as="targetPoint"/>
                    </mxGeometry>
                </mxCell>
                <mxCell id="9" value="" style="endArrow=none;html=1;fontFamily=Lucida Console;" parent="1" edge="1">
                    <mxGeometry width="50" height="50" relative="1" as="geometry">
                        <mxPoint x="480" y="160" as="sourcePoint"/>
                        <mxPoint x="480" as="targetPoint"/>
                    </mxGeometry>
                </mxCell>
                <mxCell id="11" value="" style="endArrow=none;dashed=1;html=1;fontFamily=Lucida Console;exitX=0;exitY=0.25;exitDx=0;exitDy=0;entryX=0;entryY=0.25;entryDx=0;entryDy=0;strokeWidth=1;dashPattern=1 2;" parent="1" target="3" edge="1">
                    <mxGeometry width="50" height="50" relative="1" as="geometry">
                        <mxPoint y="80" as="sourcePoint"/>
                        <mxPoint x="40" y="140" as="targetPoint"/>
                    </mxGeometry>
                </mxCell>
                <mxCell id="12" value="" style="endArrow=none;dashed=1;html=1;fontFamily=Lucida Console;strokeWidth=1;dashPattern=1 2;" parent="1" edge="1">
                    <mxGeometry width="50" height="50" relative="1" as="geometry">
                        <mxPoint x="239.71" as="sourcePoint"/>
                        <mxPoint x="239.71" y="30" as="targetPoint"/>
                    </mxGeometry>
                </mxCell>
                <mxCell id="24" value="" style="rounded=0;whiteSpace=wrap;html=1;strokeColor=none;fillColor=#d5e8d4;" parent="1" vertex="1">
                    <mxGeometry x="190" y="30" width="140" height="100" as="geometry"/>
                </mxCell>
                <mxCell id="32" style="edgeStyle=none;html=1;exitX=1;exitY=0.5;exitDx=0;exitDy=0;dashed=1;fontFamily=Lucida Console;fontSize=10;fontColor=#000000;strokeWidth=1;endArrow=none;endFill=0;dashPattern=1 2;entryX=1;entryY=0.5;entryDx=0;entryDy=0;" parent="1" source="25" target="44" edge="1">
                    <mxGeometry relative="1" as="geometry">
                        <mxPoint x="440" y="80" as="targetPoint"/>
                    </mxGeometry>
                </mxCell>
                <mxCell id="33" style="edgeStyle=none;html=1;exitX=0.5;exitY=1;exitDx=0;exitDy=0;dashed=1;fontFamily=Lucida Console;fontSize=10;fontColor=#000000;endArrow=none;endFill=0;strokeWidth=1;dashPattern=1 2;" parent="1" source="25" edge="1">
                    <mxGeometry relative="1" as="geometry">
                        <mxPoint x="380" y="140" as="targetPoint"/>
                    </mxGeometry>
                </mxCell>
                <mxCell id="34" style="edgeStyle=none;html=1;exitX=0.5;exitY=0;exitDx=0;exitDy=0;dashed=1;fontFamily=Lucida Console;fontSize=10;fontColor=#000000;endArrow=none;endFill=0;strokeWidth=1;dashPattern=1 2;" parent="1" source="25" edge="1">
                    <mxGeometry relative="1" as="geometry">
                        <mxPoint x="380" y="30" as="targetPoint"/>
                    </mxGeometry>
                </mxCell>
                <mxCell id="25" value="" style="rounded=0;whiteSpace=wrap;html=1;strokeColor=none;fillColor=#dae8fc;" parent="1" vertex="1">
                    <mxGeometry x="340" y="60" width="80" height="40" as="geometry"/>
                </mxCell>
                <mxCell id="26" value="" style="endArrow=none;dashed=1;html=1;fontFamily=Lucida Console;exitX=0.5;exitY=0;exitDx=0;exitDy=0;dashPattern=1 2;" parent="1" source="3" edge="1">
                    <mxGeometry width="50" height="50" relative="1" as="geometry">
                        <mxPoint x="50" y="170" as="sourcePoint"/>
                        <mxPoint x="100" y="30" as="targetPoint"/>
                    </mxGeometry>
                </mxCell>
                <mxCell id="27" value="" style="endArrow=none;dashed=1;html=1;fontFamily=Lucida Console;entryX=1;entryY=0.5;entryDx=0;entryDy=0;dashPattern=1 2;" parent="1" target="3" edge="1">
                    <mxGeometry width="50" height="50" relative="1" as="geometry">
                        <mxPoint x="180" y="100" as="sourcePoint"/>
                        <mxPoint x="110" y="40" as="targetPoint"/>
                    </mxGeometry>
                </mxCell>
                <mxCell id="28" value="" style="endArrow=none;dashed=1;html=1;fontFamily=Lucida Console;exitX=0;exitY=0.5;exitDx=0;exitDy=0;dashPattern=1 2;" parent="1" source="24" edge="1">
                    <mxGeometry width="50" height="50" relative="1" as="geometry">
                        <mxPoint x="190" y="105" as="sourcePoint"/>
                        <mxPoint x="180" y="80" as="targetPoint"/>
                    </mxGeometry>
                </mxCell>
                <mxCell id="30" value="" style="endArrow=none;dashed=1;html=1;fontFamily=Lucida Console;entryX=0.5;entryY=1;entryDx=0;entryDy=0;dashPattern=1 2;" parent="1" target="24" edge="1">
                    <mxGeometry width="50" height="50" relative="1" as="geometry">
                        <mxPoint x="260" y="140" as="sourcePoint"/>
                        <mxPoint x="259.87" y="140" as="targetPoint"/>
                    </mxGeometry>
                </mxCell>
                <mxCell id="31" value="" style="endArrow=none;dashed=1;html=1;fontFamily=Lucida Console;exitX=1;exitY=0.5;exitDx=0;exitDy=0;dashPattern=1 2;" parent="1" source="24" edge="1">
                    <mxGeometry width="50" height="50" relative="1" as="geometry">
                        <mxPoint x="110" y="70" as="sourcePoint"/>
                        <mxPoint x="340" y="80" as="targetPoint"/>
                    </mxGeometry>
                </mxCell>
            </root>
        </mxGraphModel>
    </diagram>
</mxfile>